<svg xmlns="http://www.w3.org/2000/svg" viewBox="0 0 64 64">
  <rect width="64" height="64" rx="32" fill="#101114"/>
  <circle cx="32" cy="32" r="25" fill="none" stroke="#d9602b" stroke-width="5"/>
  <path fill="#fffaf0" d="M34.4 50h-5v-5.1c-4.8-.6-8.5-2.8-11.2-6.4l4.4-4.4c2.2 2.8 5.1 4.3 8.8 4.3 3.3 0 5.2-1.2 5.2-3.4 0-1.1-.5-2-1.5-2.6-1-.6-2.9-1.3-5.8-2-3.5-.9-6-2.1-7.5-3.7-1.5-1.6-2.3-3.7-2.3-6.3 0-2.9.9-5.2 2.8-6.9 1.9-1.7 4.2-2.8 7.1-3.1V5h5v5.5c4 .7 7.1 2.4 9.3 5.1l-4.1 4.4c-2-2.1-4.6-3.2-7.7-3.2-3.2 0-4.8 1.1-4.8 3.2 0 1 .4 1.7 1.3 2.3.9.5 2.7 1.1 5.5 1.8 3.8.9 6.5 2.2 8.1 3.9 1.6 1.7 2.4 4 2.4 6.7 0 3-.9 5.3-2.7 7-1.8 1.7-4.2 2.8-7.3 3.2V50z"/>
</svg>
